<?xml version="1.0" encoding="UTF-8"?>
<svg version="1.1" xmlns="http://www.w3.org/2000/svg" width="2254" height="2359">
<path d="M0 0 C743.82 0 1487.64 0 2254 0 C2254 778.47 2254 1556.94 2254 2359 C1510.18 2359 766.36 2359 0 2359 C0 1580.53 0 802.06 0 0 Z " fill="#FEFEFE" transform="translate(0,0)"/>
<path d="M0 0 C1.20565913 0.82952888 2.41139417 1.65894745 3.6171875 2.48828125 C4.2673584 2.93631104 4.9175293 3.38434082 5.58740234 3.84594727 C9.05502289 6.2353896 12.52569152 8.62029243 16 11 C16.66773438 11.45955078 17.33546875 11.91910156 18.0234375 12.39257812 C47.84250856 32.78441369 82.14812701 44.48840634 116.65625 54.32861328 C121.44306485 55.69983628 126.22044898 57.10371411 131 58.5 C133.05335477 59.09906339 135.10673972 59.69802335 137.16015625 60.296875 C138.14773926 60.58498047 139.13532227 60.87308594 140.15283203 61.16992188 C141.96354131 61.69782545 143.77439736 62.22522605 145.58544922 62.75195312 C150.39548987 64.15102511 155.19982663 65.56743156 160 67 C160.91007812 67.26296875 161.82015625 67.5259375 162.7578125 67.796875 C169.32468173 69.80032663 174.73141208 72.61798269 179.5 77.625 C181.67216848 82.51237907 182.23420484 86.75843869 181 92 C176.9447846 97.96226264 169.81549852 101.20995879 163 103 C160.19921875 103.09765625 160.19921875 103.09765625 158 103 C161.77339968 107.26962758 166.45339844 110.10456976 171.1875 113.1875 C172.82741714 114.26341775 174.46677112 115.34019452 176.10546875 116.41796875 C176.82887451 116.89000732 177.55228027 117.3620459 178.29760742 117.84838867 C180 119 180 119 181 120 C180.984375 121.78515625 180.984375 121.78515625 180.75 124.0625 C180.68296875 124.79597656 180.6159375 125.52945313 180.546875 126.28515625 C179.78848505 130.05002062 178.40660982 133.42675732 177 137 C143.12205064 140.73770803 109.19526262 141.31973243 75.1496582 141.51568604 C69.76131771 141.54731001 64.373137 141.58665827 58.98492813 141.63594055 C56.52930475 141.65545823 54.07381659 141.66419615 51.61813354 141.67224121 C37.51328906 141.7682792 23.34694512 142.72983305 9.625 146.1875 C8.76197266 146.39963135 7.89894531 146.6117627 7.00976562 146.83032227 C-2.54617442 149.26528266 -11.80634277 152.45033318 -21 156 C-21.68723145 156.2592627 -22.37446289 156.51852539 -23.08251953 156.78564453 C-30.5625599 159.6284257 -30.5625599 159.6284257 -36.3125 164.9375 C-36.82339227 166.78490726 -36.82339227 166.78490726 -37 169 C-37.13019531 170.0621875 -37.26039062 171.124375 -37.39453125 172.21875 C-38.42038366 188.77148725 -29.95779516 201.98870156 -19.328125 214.05859375 C-16.60817233 217.09417071 -13.81505899 220.05246765 -11 223 C-9.96359375 224.09828125 -9.96359375 224.09828125 -8.90625 225.21875 C4.88121245 239.4582604 22.0245312 250.61792975 37.9375 262.3125 C48.85531542 270.34338237 59.56755082 278.51504738 69.86328125 287.3359375 C72.79947962 289.8459573 75.80012519 292.26929015 78.8125 294.6875 C82.82859052 297.9527562 86.50338276 301.38943315 90.10546875 305.1015625 C92.00005928 307.0000594 93.96512408 308.7535628 96 310.5 C102.21230621 315.86130536 107.84907304 321.68448798 113.18359375 327.9140625 C114.39793673 329.30859831 115.64079066 330.67879256 116.91015625 332.0234375 C160.45638177 378.41848152 182.53443421 438.36735259 182.20581055 501.3137207 C182.18740013 504.95726466 182.18530285 508.60055463 182.18554688 512.24414062 C182.16143796 529.76706637 181.16519024 546.58595479 178.3125 563.875 C178.17895111 564.68769348 178.04540222 565.50038696 177.9078064 566.33770752 C168.22268627 624.80631461 143.10966424 678.75965073 109 727 C108.5270752 727.67401855 108.05415039 728.34803711 107.56689453 729.04248047 C100.62936024 738.89589712 93.05290389 748.04080487 85 757 C84.27176025 757.81500977 84.27176025 757.81500977 83.52880859 758.64648438 C77.30542275 765.58934913 70.82741957 772.26754002 64.25 778.875 C63.55293945 779.5767334 62.85587891 780.2784668 62.13769531 781.00146484 C58.14457489 784.98227835 54.0474117 788.78138538 49.77734375 792.46337891 C47.59971941 794.34606676 45.48952616 796.29694675 43.375 798.25 C38.33535186 802.79722451 33.05229136 806.9652243 27.69140625 811.12109375 C25.23886691 813.02387011 22.81090354 814.95201482 20.40234375 816.91015625 C5.25604244 829.22238369 -10.67198957 840.31979157 -27 851 C-27.69416016 851.45584473 -28.38832031 851.91168945 -29.10351562 852.38134766 C-47.94660745 864.74323438 -67.17292989 876.51749481 -86.63525391 887.87719727 C-90.09889928 889.9035091 -93.55107225 891.9487667 -97 894 C-97.9796875 894.57878906 -98.959375 895.15757812 -99.96875 895.75390625 C-105.28830918 899.06135944 -107.9121315 901.84949771 -109.54711914 908.08740234 C-110.19236829 912.2371718 -110.19739311 916.344883 -110.24609375 920.5390625 C-110.27754473 922.48421691 -110.30929552 924.42936648 -110.34130859 926.37451172 C-110.35667664 927.39414001 -110.37204468 928.41376831 -110.38787842 929.46429443 C-110.85267269 959.06991728 -111.65021376 988.66729136 -116 1018 C-116.16870605 1019.15161621 -116.33741211 1020.30323242 -116.51123047 1021.48974609 C-125.69219844 1082.66070929 -152.44919957 1136.21882971 -202 1174 C-202.58910156 1174.45133301 -203.17820312 1174.90266602 -203.78515625 1175.36767578 C-240.7968756 1203.58402776 -285.64360342 1226.49016247 -331.02978516 1237.50390625 C-333.12190891 1238.03069627 -335.19015344 1238.61631692 -337.26171875 1239.21875 C-357.18458794 1245.01059055 -377.49345654 1248.93064665 -398 1252 C-398.90637207 1252.13647949 -399.81274414 1252.27295898 -400.74658203 1252.41357422 C-437.71855414 1257.83309323 -474.89549652 1258.44062236 -512.18609619 1258.50531006 C-518.21776007 1258.51692069 -524.2491486 1258.5405871 -530.28069687 1258.58000183 C-533.04241223 1258.59331424 -535.80372701 1258.58946093 -538.56546021 1258.58459473 C-556.53252643 1258.25902346 -556.53252643 1258.25902346 -572 1266 C-573.65906659 1268.03828181 -575.18918886 1270.0394841 -576.6875 1272.1875 C-577.11538818 1272.79045898 -577.54327637 1273.39341797 -577.98413086 1274.01464844 C-581.29687445 1278.77221552 -584.19841712 1283.7136849 -587.0625 1288.75 C-599.25076485 1309.97858289 -620.27766446 1323.39735397 -641.4375 1334.6875 C-649.08770458 1338.77601299 -655.62854317 1343.05330696 -662 1349 C-662.60199219 1349.52335937 -663.20398437 1350.04671875 -663.82421875 1350.5859375 C-678.02596477 1363.62903291 -687.2557934 1382.60288785 -697 1399 C-696.38431152 1398.76925781 -695.76862305 1398.53851562 -695.13427734 1398.30078125 C-687.69837692 1395.55187486 -680.18821402 1393.06383777 -672.63964844 1390.64550781 C-670.63403654 1390.00289537 -668.62944347 1389.3571842 -666.625 1388.7109375 C-659.44333758 1386.39965367 -652.2469463 1384.14142123 -645.03271484 1381.93359375 C-640.3440856 1380.49024178 -635.67224872 1378.99535655 -631 1377.5 C-624.0511979 1375.28244722 -617.09680153 1373.08874949 -610.12109375 1370.95703125 C-606.47255628 1369.8382682 -602.82959344 1368.70201857 -599.1875 1367.5625 C-598.51541504 1367.35222168 -597.84333008 1367.14194336 -597.15087891 1366.92529297 C-595.7833432 1366.49730555 -594.41583031 1366.06924523 -593.04833984 1365.64111328 C-589.69926642 1364.59288124 -586.34960815 1363.54652179 -583 1362.5 C-581.66666377 1362.0833426 -580.33333044 1361.66667593 -579 1361.25 C-571.00000003 1358.75000001 -571.00000003 1358.75000001 -569.00073242 1358.12524414 C-567.6649461 1357.70780073 -566.32917139 1357.29032015 -564.9934082 1356.87280273 C-561.69769891 1355.84271802 -558.40180244 1354.81324122 -555.10546875 1353.78515625 C-547.8364871 1351.51717585 -540.57234975 1349.23455621 -533.3125 1346.9375 C-526.94714034 1344.92398081 -520.57434183 1342.9376893 -514.19140625 1340.98046875 C-502.43135253 1337.36752691 -490.7122881 1333.63184169 -478.99780273 1329.87426758 C-472.81124931 1327.89222264 -466.61663188 1325.94426233 -460.40234375 1324.05078125 C-455.71748072 1322.60390621 -451.04657922 1321.11412559 -446.375 1319.625 C-444.93543945 1319.16613403 -444.93543945 1319.16613403 -443.46679688 1318.69799805 C-442.50966797 1318.39289307 -441.55253906 1318.08778809 -440.56640625 1317.7734375 C-435.81702225 1316.25951581 -431.06586422 1314.75137472 -426.3125 1313.25 C-425.58135986 1313.01869385 -424.85021973 1312.7873877 -424.09692383 1312.54907227 C-419.38367457 1311.06034886 -414.66679142 1309.58365222 -409.94732666 1308.11477661 C-406.15165851 1306.93300758 -402.3570263 1305.74792933 -398.5625 1304.5625 C-397.79160034 1304.32200928 -397.02070068 1304.08151855 -396.22644043 1303.83374023 C-387.60403237 1301.14022798 -379.04280114 1298.36741158 -370.5625 1295.25 C-339.96728719 1284.15783024 -298.79333878 1273.93084861 -267.1875 1286.75 C-265.77343684 1287.46503571 -264.37766202 1288.21712195 -263 1289 C-262.17757813 1289.45890625 -261.35515625 1289.9178125 -260.5078125 1290.390625 C-252.23633905 1295.32953378 -245.12732397 1301.57106442 -238 1308 C-237.32066406 1308.60585937 -236.64132812 1309.21171875 -235.94140625 1309.8359375 C-218.79176058 1326.03967945 -206.34863383 1348.38190997 -194.13671875 1368.29296875 C-193.46141113 1369.39350586 -192.78610352 1370.49404297 -192.09033203 1371.62792969 C-190.79784545 1373.7373624 -189.50815571 1375.84851314 -188.22216797 1377.96191406 C-179.70935183 1391.883107 -170.69784146 1405.48500266 -161.6328125 1419.05078125 C-159.75929284 1421.86142033 -157.88634557 1424.67243978 -156.01367188 1427.48364258 C-154.74710944 1429.38070294 -153.47721038 1431.27553956 -152.20410156 1433.16821289 C-140.82016273 1450.10624835 -130.60924808 1465.37218347 -130.6875 1486.375 C-130.67138672 1487.26316406 -130.65527344 1488.15132812 -130.63867188 1489.06640625 C-130.63802734 1489.91847656 -130.63738281 1490.77054688 -130.63671875 1491.6484375 C-130.63224731 1492.79578369 -130.63224731 1492.79578369 -130.62768555 1493.96630859 C-131.1055012 1496.57627868 -131.90326587 1497.40842752 -134 1499 C-151.89122404 1504.57267634 -169.73213116 1499.4056669 -185.8203125 1491.05517578 C-207.56082929 1479.3465198 -225.07367008 1461.11037405 -242.3125 1443.75 C-246.499375 1439.5425 -250.68625 1435.335 -255 1431 C-255.33 1444.2 -255.66 1457.4 -256 1471 C-274.39658849 1480.19829424 -274.39658849 1480.19829424 -281.30078125 1477.90234375 C-288.55220713 1474.16159644 -294.86724814 1469.33629058 -301 1464 C-301.8559375 1463.4121875 -302.711875 1462.824375 -303.59375 1462.21875 C-314.27706052 1453.852302 -315.34817468 1439.54439009 -318 1427 C-318.51196173 1424.68075554 -319.02495366 1422.36173821 -319.5390625 1420.04296875 C-320.43350464 1415.93041665 -321.31535821 1411.81606529 -322.15234375 1407.69140625 C-322.3997229 1406.47239624 -322.3997229 1406.47239624 -322.65209961 1405.22875977 C-323 1403 -323 1403 -323 1399 C-352.92132711 1399.38149857 -378.64653755 1404.96457151 -407.00390625 1414.296875 C-428.96224574 1421.44494238 -428.96224574 1421.44494238 -440 1420 C-440.28875 1420.928125 -440.5775 1421.85625 -440.875 1422.8125 C-442 1426 -442 1426 -444 1429 C-446.15698242 1429.61254883 -446.15698242 1429.61254883 -448.85546875 1429.95703125 C-449.85803711 1430.09641113 -450.86060547 1430.23579102 -451.89355469 1430.37939453 C-452.98055664 1430.52231934 -454.06755859 1430.66524414 -455.1875 1430.8125 C-479.11175855 1434.33922442 -501.44414477 1441.90096722 -524.09838867 1450.12475586 C-534.93572593 1454.04327098 -545.86788625 1457.67295013 -556.80200195 1461.31079102 C-560.16367228 1462.42957003 -563.52426793 1463.55153248 -566.88476562 1464.67382812 C-576.79296067 1467.97780642 -586.70696434 1471.26003123 -596.6640625 1474.4140625 C-597.41072678 1474.65108383 -598.15739105 1474.88810516 -598.92668152 1475.13230896 C-604.5224764 1476.89070692 -610.15916297 1478.4097849 -615.8359375 1479.88671875 C-624.18766301 1482.08921285 -632.46298487 1484.57713522 -640.74267578 1487.03369141 C-642.92774635 1487.68190826 -645.1136319 1488.32738372 -647.30029297 1488.97021484 C-674.55954479 1497.00650361 -699.30154709 1506.84206764 -722.70874023 1523.17822266 C-739.8623256 1535.04510164 -759.86513308 1536.85407002 -780.28515625 1534.64453125 C-796.06133321 1531.1826014 -808.72043954 1517.05935083 -817.04589844 1504.08520508 C-830.35196684 1482.53597129 -825.90010381 1451.39765997 -820.35375977 1427.81469727 C-815.03095327 1406.63098432 -807.04728744 1386.16653878 -799.375 1365.75 C-799.019823 1364.80172333 -798.664646 1363.85344666 -798.29870605 1362.87643433 C-794.63284158 1353.11416065 -790.86177147 1343.40246505 -786.7265625 1333.828125 C-786.41085297 1333.07843445 -786.09514343 1332.3287439 -785.76986694 1331.55633545 C-784.08699916 1327.74757315 -782.74112248 1325.00082833 -779 1323 C-775.75 1322.3125 -775.75 1322.3125 -773 1322 C-772.84724609 1320.95779297 -772.84724609 1320.95779297 -772.69140625 1319.89453125 C-771.88282994 1316.50947448 -770.53324287 1313.77712981 -768.9375 1310.6875 C-768.38964844 1309.61886719 -767.84179688 1308.55023437 -767.27734375 1307.44921875 C-766.85582031 1306.64097656 -766.43429687 1305.83273437 -766 1305 C-783.33645103 1307.16239604 -800.46772934 1312.50106877 -817 1318 C-818.07088867 1318.35078613 -819.14177734 1318.70157227 -820.24511719 1319.06298828 C-841.11740027 1325.92568691 -861.39934871 1332.88393292 -878.09375 1347.75 C-882.17462626 1350.90938807 -884.03137242 1350.42832996 -889 1350 C-888.79375 1351.155 -888.5875 1352.31 -888.375 1353.5 C-888.42023444 1356.37992609 -888.68901032 1357.62977419 -890.55859375 1359.85546875 C-893.27303783 1362.06183664 -896.10346954 1364.04505881 -899 1366 C-900.39778954 1366.96650258 -901.79487712 1367.93402086 -903.19140625 1368.90234375 C-906.40357645 1371.11860092 -909.6277605 1373.31611106 -912.859375 1375.50390625 C-920.50848739 1380.69021417 -928.06228776 1386.01266443 -935.62158203 1391.32861328 C-937.86937958 1392.90820905 -940.11990442 1394.48383736 -942.37109375 1396.05859375 C-958.5107704 1407.36963494 -974.26978068 1419.13242925 -989.79150391 1431.27539062 C-1000.3293043 1439.50433402 -1010.95555373 1447.46172715 -1022 1455 C-1041.79363405 1468.59438156 -1052.26695647 1483.65992786 -1059.4375 1506.5625 C-1063.93451828 1520.38828435 -1070.64413992 1530.89244686 -1081 1541 C-1081.77988281 1541.78890625 -1082.55976562 1542.5778125 -1083.36328125 1543.390625 C-1090.43434123 1550.18834988 -1098.58427994 1555.0702032 -1107 1560 C-1107.73347656 1560.43521973 -1108.46695313 1560.87043945 -1109.22265625 1561.31884766 C-1117.80666424 1566.38527846 -1126.2279931 1570.67075107 -1135.64428711 1573.95410156 C-1140.97384292 1575.85765941 -1144.78774646 1578.31549185 -1149 1582 C-1149.54720703 1582.44206787 -1150.09441406 1582.88413574 -1150.65820312 1583.33959961 C-1155.12311289 1586.98253656 -1158.53315813 1590.93239736 -1161.9375 1595.5625 C-1163.07007205 1597.07309698 -1164.2028964 1598.58350481 -1165.3359375 1600.09375 C-1166.22490723 1601.28677734 -1166.22490723 1601.28677734 -1167.13183594 1602.50390625 C-1169.73462316 1605.98154563 -1172.37401532 1609.43072031 -1175.01245117 1612.88134766 C-1180.42128617 1619.95528191 -1185.79907724 1627.05096099 -1191.125 1634.1875 C-1195.26999607 1639.73794705 -1199.48721967 1645.22704166 -1203.75 1650.6875 C-1222.00636477 1674.07957638 -1239.68962363 1697.88709635 -1256.89453125 1722.0625 C-1257.34666992 1722.69760498 -1257.79880859 1723.33270996 -1258.26464844 1723.98706055 C-1259.09624964 1725.15671484 -1259.92645774 1726.3273616 -1260.75488281 1727.49926758 C-1261.8257909 1729.00723828 -1262.91250677 1730.50394578 -1264 1732 C-1264.65355469 1732.93585938 -1265.30710937 1733.87171875 -1265.98046875 1734.8359375 C-1269.28985906 1738.38217006 -1272.3025817 1737.79276096 -1277 1738 C-1278.32 1743.28 -1279.64 1748.56 -1281 1754 C-1283.97 1754 -1286.94 1754 -1290 1754 C-1290.23589844 1755.29421875 -1290.47179688 1756.5884375 -1290.71484375 1757.921875 C-1291.88708254 1763.16874607 -1294.00050249 1767.55130531 -1296.5625 1772.25 C-1297.00505127 1773.07483887 -1297.44760254 1773.89967773 -1297.90356445 1774.74951172 C-1301.80160292 1781.88700008 -1306.1725869 1788.46080252 -1311 1795 C-1311.59425781 1795.91007812 -1312.18851563 1796.82015625 -1312.80078125 1797.7578125 C-1316.79757697 1803.61977956 -1316.79757697 1803.61977956 -1320.43359375 1804.76953125 C-1322.66892591 1805.03107558 -1324.75569849 1805.12722798 -1327 1805 C-1327.268125 1805.77601562 -1327.53625 1806.55203125 -1327.8125 1807.3515625 C-1333.80402953 1823.86768665 -1343.45836546 1837.11446637 -1354 1851 C-1362.13260023 1861.71244313 -1369.91991932 1872.57950782 -1377.45361328 1883.72314453 C-1379.33773768 1886.49727527 -1381.24858828 1889.25218992 -1383.16137695 1892.0065918 C-1395.64376585 1910.01191986 -1407.26715048 1928.58142969 -1418.6171875 1947.31640625 C-1424.5190628 1956.99785927 -1431.06156837 1966.03699615 -1438 1975 C-1438.66 1975.86367187 -1439.32 1976.72734375 -1440 1977.6171875 C-1446.56650028 1986.15971796 -1453.39338847 1994.4647985 -1460.6640625 2002.41796875 C-1462.58097302 2004.53682804 -1464.46488999 2006.67631759 -1466.33984375 2008.83203125 C-1469.79862155 2012.79251679 -1473.34046346 2016.66498165 -1476.9375 2020.5 C-1477.57429688 2021.17998047 -1478.21109375 2021.85996094 -1478.8671875 2022.56054688 C-1484.276771 2028.30229778 -1489.82604032 2033.89525653 -1495.45678711 2039.41992188 C-1499.86408288 2043.76734365 -1503.97153163 2048.30113969 -1508 2053 C-1508.85722656 2053.97582031 -1509.71445313 2054.95164062 -1510.59765625 2055.95703125 C-1532.99734655 2081.90659323 -1550.91311653 2111.0035331 -1565.34765625 2142.03515625 C-1565.74766846 2142.89157715 -1566.14768066 2143.74799805 -1566.55981445 2144.63037109 C-1567.33235365 2146.29018146 -1568.09822472 2147.95311789 -1568.85620117 2149.61962891 C-1573.4893828 2159.61201651 -1573.4893828 2159.61201651 -1578.40234375 2162.328125 C-1579.23894531 2162.63234375 -1580.07554687 2162.9365625 -1580.9375 2163.25 C-1582.18853516 2163.72179688 -1582.18853516 2163.72179688 -1583.46484375 2164.203125 C-1585.96944965 2164.99039712 -1588.41805825 2165.53358472 -1591 2166 C-1592.8871875 2166.37125 -1592.8871875 2166.37125 -1594.8125 2166.75 C-1597.87246982 2166.69248177 -1598.80506747 2166.18674834 -1601.046875 2164.0390625 C-1617.29127487 2142.56875105 -1622.03749137 2117.38730055 -1620 2091 C-1618.71034476 2082.16893218 -1616.44941265 2073.5714229 -1614 2065 C-1613.79213867 2064.25717773 -1613.58427734 2063.51435547 -1613.37011719 2062.74902344 C-1605.63734575 2035.73106728 -1591.4397589 2009.8797835 -1576.00878906 1986.57446289 C-1574.93832178 1984.96495727 -1574.93832178 1984.96495727 -1574 1983 C-1575.23302856 1983.0314209 -1575.23302856 1983.0314209 -1576.4909668 1983.06347656 C-1580.22301964 1983.14673309 -1583.95487694 1983.19869247 -1587.6875 1983.25 C-1588.98107422 1983.28351563 -1590.27464844 1983.31703125 -1591.60742188 1983.3515625 C-1593.47817383 1983.37089844 -1593.47817383 1983.37089844 -1595.38671875 1983.390625 C-1597.10701294 1983.4220459 -1597.10701294 1983.4220459 -1598.86206055 1983.45410156 C-1602.68297023 1982.90116513 -1604.30942585 1981.72316481 -1607 1979 C-1607.6803158 1976.44881576 -1607.92314183 1974.59629236 -1608 1972 C-1608.05510742 1970.65736084 -1608.05510742 1970.65736084 -1608.11132812 1969.28759766 C-1608.20742509 1966.12815436 -1608.23490355 1962.9733194 -1608.25 1959.8125 C-1608.2809375 1958.22211914 -1608.2809375 1958.22211914 -1608.3125 1956.59960938 C-1608.39748111 1939.16785957 -1602.22984262 1924.28612929 -1590.03515625 1911.953125 C-1589.02730577 1910.96478984 -1588.01545131 1909.98052415 -1587 1909 C-1586.45972168 1908.47599609 -1585.91944336 1907.95199219 -1585.36279297 1907.41210938 C-1569.92846404 1892.56571214 -1569.92846404 1892.56571214 -1560.9765625 1888.8503418 C-1558.8788576 1887.94788303 -1556.83938123 1886.96244362 -1554.79296875 1885.94921875 C-1536.75385581 1877.05501551 -1518.37851955 1871.29960668 -1498.5769043 1867.86279297 C-1482.95055834 1865.13318793 -1472.38625468 1857.88135959 -1461 1847 C-1460.45867432 1846.48421387 -1459.91734863 1845.96842773 -1459.35961914 1845.43701172 C-1455.04886948 1841.24222236 -1451.30154311 1836.80258008 -1447.6875 1832 C-1447.12192383 1831.25145752 -1446.55634766 1830.50291504 -1445.97363281 1829.73168945 C-1435.33686065 1815.53379332 -1426.30792918 1800.37689812 -1417.14682007 1785.20706177 C-1407.85271186 1769.81939415 -1398.28290546 1754.74642703 -1388 1740 C-1386.70533235 1738.1343899 -1385.41107696 1736.26849365 -1384.1171875 1734.40234375 C-1373.1340805 1718.57906577 -1373.1340805 1718.57906577 -1368.046875 1711.4453125 C-1367.41773193 1710.55900146 -1366.78858887 1709.67269043 -1366.14038086 1708.75952148 C-1364.9673918 1707.10900195 -1363.78897713 1705.46231723 -1362.60375977 1703.82055664 C-1358.80512997 1698.46504548 -1355.78026234 1692.94591529 -1353 1687 C-1350.03 1687 -1347.06 1687 -1344 1687 C-1343.67 1685.659375 -1343.34 1684.31875 -1343 1682.9375 C-1337.20433755 1663.92131721 -1323.30510233 1648.02101853 -1311.55273438 1632.4140625 C-1301.4904084 1619.03167973 -1292.10214165 1605.2379753 -1282.8125 1591.3125 C-1282.34464081 1590.61130035 -1281.87678162 1589.91010071 -1281.39474487 1589.18765259 C-1276.98499921 1582.57240528 -1272.59115989 1575.95066227 -1268.32377625 1569.2424469 C-1264.9407591 1563.92511589 -1261.50473161 1558.74985128 -1257.5 1553.875 C-1256.56576457 1552.70363649 -1255.63218096 1551.53175285 -1254.69921875 1550.359375 C-1252.99953775 1548.23975859 -1251.29241264 1546.12666116 -1249.58203125 1544.015625 C-1236.58240695 1527.45844431 -1230.26110573 1507.88531249 -1225.4375 1487.625 C-1218.49432882 1458.53897184 -1202.27936174 1436.79223531 -1177 1421 C-1176.40928711 1420.61199219 -1175.81857422 1420.22398438 -1175.20996094 1419.82421875 C-1166.39260768 1414.03481536 -1157.6117605 1409.91630464 -1147.625 1406.5 C-1125.37845182 1398.87749 -1106.64782227 1386.9792818 -1088.97265625 1371.57421875 C-1086.21776517 1369.1885772 -1083.40903232 1366.8997398 -1080.5625 1364.625 C-1076.20955828 1361.0945618 -1072.12959683 1357.3493057 -1068.0625 1353.5 C-1050.39509392 1336.80749826 -1050.39509392 1336.80749826 -1040 1337 C-1040 1334.03 -1040 1331.06 -1040 1328 C-1037.36 1328 -1034.72 1328 -1032 1328 C-1032.226875 1326.88625 -1032.45375 1325.7725 -1032.6875 1324.625 C-1032.6875 1321.28288796 -1032.12840217 1320.1519912 -1029.9375 1317.55859375 C-1027.02941319 1314.91900928 -1024.07160936 1312.44804957 -1021 1310 C-1002.90135486 1295.41303227 -986.32050561 1279.35272988 -972 1261 C-971.56397461 1260.44715332 -971.12794922 1259.89430664 -970.67871094 1259.32470703 C-955.62387146 1240.8922972 -955.62387146 1240.8922972 -945 1220 C-946.14988403 1219.92869873 -946.14988403 1219.92869873 -947.32299805 1219.85595703 C-955.89545097 1219.26759464 -964.32591519 1218.20819839 -972.8125 1216.875 C-973.49608582 1216.76806824 -974.17967163 1216.66113647 -974.88397217 1216.55096436 C-989.4214125 1214.25764832 -1003.75483554 1211.20940588 -1018.09033203 1207.8984375 C-1021.91879248 1207.0150107 -1025.75393935 1206.16304634 -1029.58984375 1205.3125 C-1059.68672078 1198.56502496 -1090.24972408 1190.26533696 -1119 1179 C-1120.02343506 1178.60022949 -1121.04687012 1178.20045898 -1122.10131836 1177.78857422 C-1137.09407885 1171.89985392 -1152.02901778 1165.92819632 -1166.62695312 1159.10644531 C-1169.10483401 1157.9511206 -1171.59124462 1156.81549505 -1174.078125 1155.6796875 C-1196.97925508 1145.1129053 -1218.69821959 1132.31813978 -1239.3125 1117.8125 C-1240.17061279 1117.20881592 -1241.02872559 1116.60513184 -1241.9128418 1115.9831543 C-1242.74211182 1115.39961182 -1243.57138184 1114.81606934 -1244.42578125 1114.21484375 C-1245.95033945 1113.14297113 -1247.47506004 1112.07132942 -1249 1111 C-1249.58185059 1110.59023926 -1250.16370117 1110.18047852 -1250.76318359 1109.75830078 C-1269.23073713 1096.87875898 -1290.04081352 1097.45939655 -1311.42578125 1100.953125 C-1319.58468662 1102.41251231 -1327.60724572 1104.44801923 -1335.64453125 1106.45703125 C-1341.89619783 1108.00626127 -1348.18518373 1109.30034131 -1354.5 1110.5625 C-1363.50503404 1112.38558723 -1372.24402796 1114.63510908 -1381.00537109 1117.38818359 C-1383.02284684 1118.00700786 -1385.04825206 1118.58177008 -1387.08203125 1119.14453125 C-1425.85458053 1129.93269963 -1462.05802384 1148.86740096 -1496.33203125 1169.63671875 C-1506.42855313 1175.70260675 -1514.49373446 1179.34533731 -1526.375 1179.125 C-1527.30183594 1179.11597656 -1528.22867188 1179.10695313 -1529.18359375 1179.09765625 C-1531.45600077 1179.07422937 -1533.7278618 1179.04142748 -1536 1179 C-1549.43618494 1155.10935883 -1549.33799108 1124.06870515 -1543.22265625 1097.640625 C-1542.28969763 1094.67758044 -1541.2021537 1091.8647067 -1540 1089 C-1539.39330207 1087.50049674 -1538.78794234 1086.00045166 -1538.18359375 1084.5 C-1536.4885131 1080.31917308 -1534.75330813 1076.15671926 -1533 1072 C-1538.29581244 1071.24692872 -1538.29581244 1071.24692872 -1542.98291016 1073.38720703 C-1545.01867752 1075.37513516 -1546.92316602 1077.43495983 -1548.8125 1079.5625 C-1554.0179034 1085.1049439 -1558.85150426 1089.68106907 -1565.484375 1093.50390625 C-1570.01718108 1096.19965894 -1573.97507866 1099.60990365 -1578 1103 C-1578.76183594 1103.62648438 -1579.52367187 1104.25296875 -1580.30859375 1104.8984375 C-1585.3656121 1109.19295915 -1589.48046986 1113.87605123 -1593.61328125 1119.0546875 C-1606.38014073 1134.80953536 -1606.38014073 1134.80953536 -1615 1139 C-1616.7634375 1139.8971875 -1616.7634375 1139.8971875 -1618.5625 1140.8125 C-1626.00846237 1143.38474155 -1632.78023877 1141.55973353 -1640 1139 C-1643.3125 1137.125 -1643.3125 1137.125 -1646 1135 C-1647.051875 1134.2575 -1648.10375 1133.515 -1649.1875 1132.75 C-1658.02505381 1124.10883628 -1658.10256059 1106.30575035 -1658.30688477 1094.67553711 C-1658.35310584 1071.62327629 -1653.89232762 1050.0385576 -1646.70947266 1028.20849609 C-1645.27280008 1023.73632123 -1644.02595154 1019.21099959 -1642.76171875 1014.6875 C-1642.22051313 1012.77801556 -1641.62761727 1010.88285181 -1641 1009 C-1656.65034491 1014.87088625 -1671.89897034 1021.10183838 -1686.85083008 1028.58276367 C-1698.38830938 1034.32604315 -1708.64077591 1038.15848977 -1721.5625 1038.375 C-1722.41263672 1038.41238281 -1723.26277344 1038.44976563 -1724.13867188 1038.48828125 C-1730.29925598 1038.5752542 -1730.29925598 1038.5752542 -1733.46484375 1035.9765625 C-1742.72361117 1018.02444857 -1736.29231995 992.08103073 -1730.62231445 973.90185547 C-1720.12624259 941.993562 -1701.76950354 914.84407737 -1682 888 C-1681.56526367 887.40928711 -1681.13052734 886.81857422 -1680.68261719 886.20996094 C-1678.15291526 882.78242715 -1675.58990344 879.38222572 -1673 876 C-1672.00419922 874.69482422 -1672.00419922 874.69482422 -1670.98828125 873.36328125 C-1663.3835383 863.60709825 -1654.70524593 855.63202918 -1645 848 C-1644.02417969 847.23042969 -1643.04835938 846.46085938 -1642.04296875 845.66796875 C-1581.02480802 798.15823103 -1511.5865898 774.57736609 -1433.77514648 782.82397461 C-1429.15583694 783.4157454 -1424.5795656 784.15590173 -1420 785 C-1418.32212402 785.30526611 -1418.32212402 785.30526611 -1416.61035156 785.61669922 C-1395.47318508 789.52681492 -1395.47318508 789.52681492 -1394 791 C-1393.92820036 792.51928038 -1393.91607993 794.04167482 -1393.9375 795.5625 C-1393.94652344 796.38878906 -1393.95554687 797.21507812 -1393.96484375 798.06640625 C-1393.98224609 799.02353516 -1393.98224609 799.02353516 -1394 800 C-1393.31035156 800.04898438 -1392.62070313 800.09796875 -1391.91015625 800.1484375 C-1385.76590531 800.63728051 -1379.9850923 801.52825599 -1374 803 C-1374.56267578 802.17822266 -1374.56267578 802.17822266 -1375.13671875 801.33984375 C-1382.29543045 790.25015183 -1387.13058291 777.70170654 -1384.48828125 764.4296875 C-1383.50504728 760.89459197 -1382.6334583 758.59506689 -1379.9375 756.0625 C-1371.96224568 753.17783355 -1363.77110615 752.6402323 -1355.359375 752.39453125 C-1353.72787506 752.33807182 -1353.72787506 752.33807182 -1352.06341553 752.2804718 C-1342.83089834 751.97964719 -1333.59801226 751.85964529 -1324.36157227 751.76074219 C-1284.08171618 751.30875997 -1243.83373996 748.79464353 -1204.04547119 742.32885742 C-1201.99827356 741.99972243 -1199.94953981 741.68269569 -1197.89990234 741.36914062 C-1125.24618136 730.19970984 -1053.97550405 704.45069222 -989.77001953 668.80371094 C-976.6405524 661.53658276 -963.24322768 654.76951799 -949.87469482 647.95556641 C-948.13757736 647.07012571 -946.401039 646.18354912 -944.66455078 645.296875 C-934.10768991 639.91740979 -923.50378645 634.75342921 -912.62890625 630.046875 C-909.34740347 628.61806502 -906.10432352 627.1166404 -902.86668396 625.59115601 C-894.32633005 621.56830459 -885.69706064 617.79528526 -877 614.125 C-876.2832309 613.82185883 -875.56646179 613.51871765 -874.82797241 613.20639038 C-862.30305334 607.91390995 -849.72585397 602.792639 -837 598 C-835.89221191 597.58186035 -834.78442383 597.1637207 -833.64306641 596.73291016 C-809.20467951 587.54799058 -784.50946368 578.69488446 -759.35302734 571.67041016 C-756.44234567 570.84111654 -753.54425264 569.97229991 -750.64453125 569.10546875 C-727.32087789 562.19151522 -704.17544915 557.60711525 -680 555 C-678.66364502 554.85135498 -678.66364502 554.85135498 -677.30029297 554.69970703 C-674.74265206 554.41669135 -672.1842445 554.14310168 -669.625 553.875 C-668.91432373 553.79934814 -668.20364746 553.72369629 -667.47143555 553.64575195 C-651.75948789 552.09020059 -636.03651424 551.83797171 -620.26171875 551.83203125 C-618.20457437 551.82880328 -616.1474302 551.82543817 -614.09028625 551.82194519 C-609.80001292 551.81600296 -605.50975957 551.81410004 -601.21948242 551.81469727 C-596.88447879 551.81477825 -592.54958145 551.80787171 -588.21459961 551.79418945 C-529.51730195 551.61189793 -529.51730195 551.61189793 -502.3125 555.9375 C-501.15282715 556.11369873 -499.9931543 556.28989746 -498.79833984 556.47143555 C-496.53186812 556.8182414 -494.26617421 557.17018648 -492.00146484 557.52832031 C-489.43678569 557.9313592 -486.87067198 558.31183263 -484.30078125 558.6796875 C-461.66079012 562.02989478 -439.49412066 568.09753054 -417.75195312 575.12695312 C-414.3386717 576.20980394 -410.90334507 577.20701277 -407.45800781 578.18261719 C-404.2171321 579.2603339 -401.13648802 580.64938517 -398 582 C-395.52057956 582.92909436 -393.03872726 583.84469054 -390.55078125 584.75 C-382.26428322 587.81761204 -374.2169825 591.31819377 -366.1875 595 C-365.48200012 595.32225555 -364.77650024 595.64451111 -364.04962158 595.97653198 C-341.54515245 606.2773499 -319.93466672 617.7800369 -299 631 C-298.06285156 631.58813477 -297.12570312 632.17626953 -296.16015625 632.78222656 C-287.27839347 638.35921821 -278.4456073 643.9906203 -269.77539062 649.89208984 C-257.8612453 657.98399327 -246.08586677 664.39618814 -232 668 C-231.24203125 668.19464844 -230.4840625 668.38929688 -229.703125 668.58984375 C-219.41443858 670.15098837 -208.02077718 669.73568728 -198 667 C-196.00280639 666.49012111 -194.00549914 665.98065758 -192.0065918 665.47753906 C-190.62987699 665.12874818 -189.25487183 664.77310488 -187.88208008 664.40917969 C-178.46232462 661.96383614 -169.13393548 661.68961079 -159.4375 661.625 C-158.72736755 661.61944092 -158.01723511 661.61388184 -157.2855835 661.6081543 C-145.21701171 661.56144801 -133.5555953 662.77172648 -121.625 664.5 C-74.13014915 671.30641078 -31.27265023 665.03636513 8.34814453 636.26318359 C11.967982 633.49507258 15.28899467 630.42948739 18.58984375 627.2890625 C20.66509851 625.31807499 22.78903232 623.50094016 25 621.6875 C44.81502502 604.34428792 56.06526132 579.88755148 63 555 C63.17724609 554.37174316 63.35449219 553.74348633 63.53710938 553.09619141 C72.92773534 510.57092003 65.71856323 460.40965887 42.5625 423.625 C38.60438911 417.52748466 33.99572448 412.25958317 29 407 C27.66568451 405.45918331 26.33238227 403.9174887 25 402.375 C18.15878502 394.76429862 10.51873108 387.92906362 3 381 C2.03191406 380.10539062 1.06382813 379.21078125 0.06640625 378.2890625 C-5.77207061 372.9643716 -11.81563329 367.91687417 -18 363 C-18.65000977 362.48276367 -19.30001953 361.96552734 -19.96972656 361.43261719 C-31.43554871 352.34084525 -43.18765725 343.76395205 -55.23339844 335.46044922 C-63.20693446 329.96032958 -70.93830683 324.53893546 -78 317.8828125 C-79.67796568 316.30316513 -81.37838695 314.86029203 -83.1875 313.4375 C-87.3319199 309.84566942 -90.73471659 305.71798364 -94.24121094 301.51074219 C-100.04715311 294.54951449 -105.98930803 287.93734202 -112.5 281.625 C-124.96137331 269.40226554 -133.89975939 255.35085884 -142.62890625 240.32324219 C-143.86214927 238.2335804 -145.1331922 236.17859561 -146.4375 234.1328125 C-178.16760972 184.11330207 -181.82698007 120.00440321 -169.8125 63.4375 C-162.62478829 32.2792581 -144.02757656 3.49659497 -118 -15 C-117.05898437 -15.68449219 -116.11796875 -16.36898437 -115.1484375 -17.07421875 C-80.5385449 -40.86228614 -30.67274129 -21.19128138 0 0 Z " fill="#9D58FE" transform="translate(1904,122)"/>
<path d="M0 0 C0 0.66 0 1.32 0 2 C1.9600281 3.63676257 1.9600281 3.63676257 4 5 C3.36723145 5.5873291 3.36723145 5.5873291 2.72167969 6.18652344 C-1.50229283 10.1125489 -5.70935409 14.05594634 -9.90087891 18.01660156 C-11.19524958 19.23961474 -12.49141947 20.46073088 -13.79052734 21.67871094 C-23.43335126 30.75737324 -30.97971429 40.51212699 -37.02734375 52.390625 C-38 54 -38 54 -40 55 C-42.3494053 54.39239518 -44.68529088 53.72870472 -47 53 C-44.7591485 38.55895697 -37.26453188 27.91147604 -27 18 C-26.45972168 17.47599609 -25.91944336 16.95199219 -25.36279297 16.41210938 C-5.46173545 -2.73086773 -5.46173545 -2.73086773 0 0 Z " fill="#AC4DFE" transform="translate(344,2013)"/>
<path d="M0 0 C2.27274746 1.40693891 3.80266508 2.71740964 5.625 4.625 C-11.04166667 21.29166667 -27.70833333 37.95833333 -44.375 54.625 C-44.85957622 41.24531227 -40.77045948 33.63875163 -31.7890625 23.7890625 C-26.49960638 18.3783581 -20.9516618 13.40070467 -15.01171875 8.71484375 C-13.2701125 7.33445954 -11.56258733 5.90982097 -9.89453125 4.44140625 C-4.18476697 -0.46497411 -4.18476697 -0.46497411 0 0 Z " fill="#AB4EFE" transform="translate(271.375,963.375)"/>
<path d="M0 0 C-2.23597477 5.8906002 -5.31449391 11.25591969 -8.375 16.75 C-8.9525 17.81605469 -9.53 18.88210938 -10.125 19.98046875 C-10.68960937 20.99238281 -11.25421875 22.00429687 -11.8359375 23.046875 C-12.60236572 24.43664551 -12.60236572 24.43664551 -13.38427734 25.85449219 C-15 28 -15 28 -17.02587891 28.89941406 C-19.97369676 29.04961205 -21.6374724 27.64064417 -24 26 C-23.57970641 20.67628114 -21.48416246 16.90251293 -18.86328125 12.3671875 C-17.74242693 10.05250133 -17.74242693 10.05250133 -18.69140625 7.8984375 C-19.93254672 6.09785759 -21.19578063 4.40488558 -22.625 2.75 C-23.800625 1.38875 -23.800625 1.38875 -25 0 C-17.09148674 -5.27234217 -8.28502755 -3.22195516 0 0 Z " fill="#B635FE" transform="translate(1156,1417)"/>
<path d="M0 0 C0.99 0.66 1.98 1.32 3 2 C1.61024711 5.15841093 0.00717181 7.20784519 -2.4921875 9.57421875 C-3.19206787 10.23808594 -3.89194824 10.90195313 -4.61303711 11.5859375 C-5.35948486 12.27945312 -6.10593262 12.97296875 -6.875 13.6875 C-7.63498291 14.39777344 -8.39496582 15.10804687 -9.17797852 15.83984375 C-25.59514133 31 -25.59514133 31 -30 31 C-27.89705303 19.18143802 -22.78562549 10.96027436 -13.625 3.5 C-13.08367432 3.04173828 -12.54234863 2.58347656 -11.98461914 2.11132812 C-7.73007436 -1.19104839 -5.1241727 -1.41862538 0 0 Z " fill="#A94AFE" transform="translate(728,1548)"/>
<path d="M0 0 C5.445 1.485 5.445 1.485 11 3 C7.91330796 6.08669204 7.08072342 6.44855089 3 7 C2.01 4.69 1.02 2.38 0 0 Z " fill="#F6F1FE" transform="translate(2040,222)"/>
<path d="M0 0 C0.33 0.66 0.66 1.32 1 2 C0.401875 2.845625 -0.19625 3.69125 -0.8125 4.5625 C-3.0400402 7.88399232 -4.51681821 11.29204553 -6 15 C-6.66 14.67 -7.32 14.34 -8 14 C-6.6744419 10.37723685 -5.05653045 7.36494652 -2.875 4.1875 C-2.33617187 3.39730469 -1.79734375 2.60710937 -1.2421875 1.79296875 C-0.83226562 1.20128906 -0.42234375 0.60960937 0 0 Z " fill="#A86AFE" transform="translate(310,2038)"/>
</svg>
